<svg xmlns="http://www.w3.org/2000/svg" width="60" height="60" viewBox="0 0 200 200" xml:space="preserve"><path fill="#282828" d="M138.832 147.848h-77c-5.2 0-9.5-4.3-9.5-9.5v-57c0-5.2 4.3-9.5 9.5-9.5h82.5c1.1 0 2 .9 2 2s-.9 2-2 2h-82.5c-3 0-5.5 2.5-5.5 5.5v57c0 3 2.5 5.5 5.5 5.5h77c3 0 5.5-2.5 5.5-5.5v-42.5c0-1.1.9-2 2-2s2 .9 2 2v42.5c0 5.3-4.3 9.5-9.5 9.5z"/><path fill="#282828" d="M100.332 122.248c-.5 0-1-.2-1.4-.6l-31.6-31.6c-.8-.8-.8-2 0-2.8s2-.8 2.8 0l30.2 30.2 42.4-42.4-19.9-19.9c-.8-.8-.8-2 0-2.8.8-.8 2-.8 2.8 0l21.3 21.3c.8.8.8 2 0 2.8l-45.2 45.2c-.4.4-.9.6-1.4.6z"/><path fill="#282828" d="M69.032 132.348c-.5 0-1-.2-1.4-.6-.8-.8-.8-2 0-2.8l20.7-20.7c.8-.8 2-.8 2.8 0s.8 2 0 2.8l-20.6 20.8c-.4.4-1 .5-1.5.5zM132.632 132.348c-.5 0-1-.2-1.4-.6l-20.7-20.6c-.8-.8-.8-2 0-2.8.8-.8 2-.8 2.8 0l20.7 20.7c.8.8.8 2 0 2.8-.4.4-.9.5-1.4.5z"/></svg>